<?xml version="1.0" encoding="UTF-8"?>
<svg xmlns="http://www.w3.org/2000/svg" id="a" width="865.76" height="682.89" viewBox="0 0 865.76 682.89">
  <g>
    <rect x="56.25" y="90.08" width="665.31" height="410.45" rx="16.13" ry="16.13" fill="#fff"></rect>
    <path d="M705.43,501.03H72.38c-9.17,0-16.63-7.46-16.63-16.63V106.21c0-9.17,7.46-16.63,16.63-16.63H705.43c9.17,0,16.63,7.46,16.63,16.63V484.4c0,9.17-7.46,16.63-16.63,16.63ZM72.38,90.58c-8.62,0-15.63,7.01-15.63,15.63V484.4c0,8.62,7.01,15.63,15.63,15.63H705.43c8.62,0,15.63-7.01,15.63-15.63V106.21c0-8.62-7.01-15.63-15.63-15.63H72.38Z" fill="#002346"></path>
  </g>
  <g>
    <rect x="71.39" y="102.4" width="635.04" height="385.81" rx="12.01" ry="12.01" fill="#e6e7e8"></rect>
    <path d="M694.42,488.71H83.4c-6.9,0-12.51-5.61-12.51-12.51V114.41c0-6.9,5.61-12.51,12.51-12.51H694.42c6.9,0,12.51,5.61,12.51,12.51V476.2c0,6.9-5.61,12.51-12.51,12.51ZM83.4,102.9c-6.35,0-11.51,5.16-11.51,11.51V476.2c0,6.35,5.16,11.51,11.51,11.51H694.42c6.35,0,11.51-5.16,11.51-11.51V114.41c0-6.35-5.16-11.51-11.51-11.51H83.4Z" fill="#002346"></path>
  </g>
  <g>
    <rect x="109.76" y="31.64" width="203.46" height="291.47" rx="16.36" ry="16.36" fill="#fff"></rect>
    <path d="M296.86,323.61H126.12c-9.3,0-16.86-7.56-16.86-16.86V48c0-9.3,7.56-16.86,16.86-16.86h170.74c9.3,0,16.86,7.56,16.86,16.86V306.75c0,9.3-7.56,16.86-16.86,16.86ZM126.12,32.14c-8.75,0-15.86,7.12-15.86,15.86V306.75c0,8.75,7.11,15.86,15.86,15.86h170.74c8.75,0,15.86-7.11,15.86-15.86V48c0-8.75-7.11-15.86-15.86-15.86H126.12Z" fill="#002346"></path>
  </g>
  <g>
    <rect x="121.03" y="43.61" width="180.94" height="266.12" rx="16.36" ry="16.36" fill="#fbe493"></rect>
    <path d="M285.61,310.23H137.39c-9.3,0-16.86-7.56-16.86-16.86V59.97c0-9.3,7.56-16.86,16.86-16.86h148.22c9.3,0,16.86,7.56,16.86,16.86v233.4c0,9.3-7.56,16.86-16.86,16.86ZM137.39,44.11c-8.75,0-15.86,7.12-15.86,15.86v233.4c0,8.75,7.11,15.86,15.86,15.86h148.22c8.75,0,15.86-7.12,15.86-15.86V59.97c0-8.75-7.11-15.86-15.86-15.86H137.39Z" fill="#002346"></path>
  </g>
  <path d="M280.79,303.94H142.89c-7.7,0-13.96-6.26-13.96-13.96V100.68c0-7.7,6.26-13.96,13.96-13.96h137.9c7.7,0,13.96,6.26,13.96,13.96v189.3c0,7.7-6.26,13.96-13.96,13.96ZM142.89,87.8c-7.1,0-12.88,5.78-12.88,12.88v189.3c0,7.1,5.78,12.88,12.88,12.88h137.9c7.1,0,12.88-5.78,12.88-12.88V100.68c0-7.1-5.78-12.88-12.88-12.88H142.89Z" fill="#002346"></path>
  <g>
    <path d="M140.74,55.58h123.91c1.94,0,3.52,1.58,3.52,3.52h0c0,1.94-1.58,3.52-3.52,3.52h-123.91c-1.94,0-3.52-1.58-3.52-3.52h0c0-1.94,1.58-3.52,3.52-3.52Z" fill="#fff"></path>
    <path d="M264.65,63.12h-123.91c-2.22,0-4.02-1.8-4.02-4.02s1.8-4.02,4.02-4.02h123.91c2.22,0,4.02,1.8,4.02,4.02s-1.8,4.02-4.02,4.02Zm-123.91-7.04c-1.67,0-3.02,1.36-3.02,3.02s1.35,3.02,3.02,3.02h123.91c1.67,0,3.02-1.35,3.02-3.02s-1.35-3.02-3.02-3.02h-123.91Z" fill="#002346"></path>
  </g>
  <g>
    <rect x="153.41" y="71.77" width="114.76" height="7.04" rx="3.52" ry="3.52" fill="#fff"></rect>
    <path d="M264.65,79.31h-107.72c-2.22,0-4.02-1.8-4.02-4.02s1.8-4.02,4.02-4.02h107.72c2.22,0,4.02,1.8,4.02,4.02s-1.8,4.02-4.02,4.02Zm-107.72-7.04c-1.67,0-3.02,1.35-3.02,3.02s1.35,3.02,3.02,3.02h107.72c1.67,0,3.02-1.36,3.02-3.02s-1.35-3.02-3.02-3.02h-107.72Z" fill="#002346"></path>
  </g>
  <path d="M264.65,379.23h-123.91c-2.22,0-4.02-1.8-4.02-4.02s1.8-4.02,4.02-4.02h123.91c2.22,0,4.02,1.8,4.02,4.02s-1.8,4.02-4.02,4.02Zm-123.91-7.04c-1.67,0-3.02,1.36-3.02,3.02s1.35,3.02,3.02,3.02h123.91c1.67,0,3.02-1.35,3.02-3.02s-1.35-3.02-3.02-3.02h-123.91Z"></path>
  <path d="M264.65,395.42h-107.72c-2.22,0-4.02-1.8-4.02-4.02s1.8-4.02,4.02-4.02h107.72c2.22,0,4.02,1.8,4.02,4.02s-1.8,4.02-4.02,4.02Zm-107.72-7.04c-1.67,0-3.02,1.35-3.02,3.02s1.35,3.02,3.02,3.02h107.72c1.67,0,3.02-1.36,3.02-3.02s-1.35-3.02-3.02-3.02h-107.72Z"></path>
  <path d="M294.22,107.76H129.47c-.3,0-.54-.24-.54-.54s.24-.54,.54-.54h164.75c.3,0,.54,.24,.54,.54s-.24,.54-.54,.54Z" fill="#002346"></path>
  <g>
    <path d="M125.89,349.16h171.21c8.91,0,16.13,7.22,16.13,16.13h0v122.56H109.76v-122.56c0-8.91,7.22-16.13,16.13-16.13h0Z" fill="#f69074"></path>
    <path d="M313.73,488.35H109.26v-123.06c0-9.17,7.46-16.63,16.63-16.63h171.21c9.17,0,16.63,7.46,16.63,16.63v123.06Zm-203.47-1h202.47v-122.06c0-8.62-7.01-15.63-15.63-15.63H125.89c-8.62,0-15.63,7.01-15.63,15.63v122.06Z" fill="#002346"></path>
  </g>
  <g>
    <path d="M129.47,488.21v-89.13c0-3.66,2.59-6.63,5.78-6.63h150.37c3.19,0,5.78,2.97,5.78,6.63v89.13" fill="#fff"></path>
    <path d="M291.9,488.21h-1v-89.13c0-3.38-2.37-6.13-5.28-6.13H135.25c-2.91,0-5.27,2.76-5.28,6.14v89.13h-1v-89.13c0-3.93,2.82-7.13,6.28-7.13h150.37c3.46,0,6.28,3.2,6.28,7.13v89.13Z" fill="#002346"></path>
  </g>
  <path d="M291.4,414.04H129.47c-.3,0-.54-.24-.54-.54s.24-.54,.54-.54h161.93c.3,0,.54,.24,.54,.54s-.24,.54-.54,.54Z" fill="#002346"></path>
  <g>
    <path d="M211.49,488.21v-43.34c0-1.88-1.53-3.41-3.41-3.41-.03,0-.06,0-.09,0-10.1,.28-39.26,4.8-50.61,46.39l54.11,.36Z" fill="#fbe493"></path>
    <path d="M211.99,488.71l-55.26-.37,.17-.63c11.57-42.4,42.02-46.51,51.08-46.76h.1c1.04,0,2.03,.41,2.76,1.14s1.14,1.72,1.14,2.76v43.84Zm-53.95-1.36l52.95,.35v-42.84c0-.78-.3-1.51-.85-2.06-.55-.55-1.28-.85-2.06-.85-11.4,.32-38.85,5.38-50.04,45.4Z" fill="#002346"></path>
  </g>
  <g>
    <path d="M217.24,480.27l7.16-41.2c.48-2.75,3.09-4.61,5.85-4.17,9.19,1.46,28.16,6.75,32.62,25.66,.54,2.43-.65,4.9-2.88,6l-36.85,18.09c-1.32,.65-2.89,.55-4.12-.27h0c-1.35-.9-2.05-2.51-1.78-4.11Z" fill="#fbe493"></path>
    <path d="M221.32,485.57c-.9,0-1.8-.26-2.57-.78-1.51-1.01-2.29-2.82-2-4.61h0s7.16-41.2,7.16-41.2c.53-3,3.41-5.06,6.42-4.58,8.4,1.33,28.43,6.54,33.03,26.04,.59,2.67-.7,5.36-3.15,6.56l-36.85,18.09c-.65,.32-1.35,.47-2.04,.47Zm-3.58-5.22c-.23,1.4,.38,2.82,1.56,3.61,1.07,.72,2.46,.81,3.62,.24l36.85-18.09c2.03-1,3.1-3.23,2.61-5.44-4.46-18.9-24.01-23.97-32.21-25.27-2.48-.4-4.85,1.29-5.28,3.76l-7.16,41.2Z" fill="#002346"></path>
  </g>
  <g>
    <path d="M235.78,487.85l26.82-8.3c1.59-.47,3.26,.44,3.73,2.03,.01,.04,.02,.09,.03,.13,.52,2.16,.36,4.43-.45,6.5l-30.13-.36Z" fill="#fbe493"></path>
    <path d="M266.25,488.71l-33.65-.4,29.86-9.24c1.86-.55,3.81,.51,4.35,2.37l.04,.15c.55,2.27,.39,4.63-.47,6.8l-.13,.32Zm-27.29-1.33l26.6,.32c.67-1.89,.78-3.92,.31-5.88l-.03-.11c-.39-1.32-1.78-2.08-3.1-1.69l-23.78,7.36Z" fill="#002346"></path>
  </g>
  <g>
    <rect x="349.84" y="66.84" width="335.12" height="138.69" rx="8.07" ry="8.07" fill="#f69074"></rect>
    <path d="M676.89,206.03H357.91c-4.73,0-8.57-3.84-8.57-8.57V74.91c0-4.73,3.84-8.57,8.57-8.57h318.98c4.73,0,8.57,3.84,8.57,8.57v122.55c0,4.73-3.84,8.57-8.57,8.57ZM357.91,67.34c-4.17,0-7.57,3.4-7.57,7.57v122.55c0,4.17,3.4,7.57,7.57,7.57h318.98c4.17,0,7.57-3.4,7.57-7.57V74.91c0-4.17-3.4-7.57-7.57-7.57H357.91Z" fill="#002346"></path>
  </g>
  <g>
    <rect x="368.84" y="131.61" width="16.9" height="59.14" fill="#fff"></rect>
    <path d="M386.24,191.25h-17.9v-60.14h17.9v60.14Zm-16.9-1h15.9v-58.14h-15.9v58.14Z" fill="#002346"></path>
  </g>
  <g>
    <rect x="420.94" y="100.64" width="16.9" height="90.12" fill="#fff"></rect>
    <path d="M438.34,191.26h-17.9V100.14h17.9v91.12Zm-16.9-1h15.9V101.14h-15.9v89.12Z" fill="#002346"></path>
  </g>
  <g>
    <rect x="473.75" y="113.31" width="16.9" height="77.44" fill="#fff"></rect>
    <path d="M491.15,191.25h-17.9V112.81h17.9v78.44Zm-16.9-1h15.9V113.81h-15.9v76.44Z" fill="#002346"></path>
  </g>
  <g>
    <rect x="500.5" y="127.39" width="16.9" height="64.07" fill="#fff"></rect>
    <path d="M517.9,191.96h-17.9V126.89h17.9v65.07Zm-16.9-1h15.9v-63.07h-15.9v63.07Z" fill="#002346"></path>
  </g>
  <g>
    <rect x="525.14" y="141.47" width="16.9" height="49.99" fill="#fff"></rect>
    <path d="M542.54,191.96h-17.9v-50.99h17.9v50.99Zm-16.9-1h15.9v-48.99h-15.9v48.99Z" fill="#002346"></path>
  </g>
  <g>
    <rect x="552.6" y="84.44" width="16.9" height="107.01" fill="#fff"></rect>
    <path d="M570,191.95h-17.9V83.94h17.9v108.01Zm-16.9-1h15.9V84.94h-15.9v106.01Z" fill="#002346"></path>
  </g>
  <g>
    <rect x="579.35" y="93.6" width="16.9" height="97.86" fill="#fff"></rect>
    <path d="M596.75,191.96h-17.9V93.1h17.9v98.86Zm-16.9-1h15.9V94.1h-15.9v96.86Z" fill="#002346"></path>
  </g>
  <g>
    <rect x="604.7" y="111.9" width="16.9" height="79.56" fill="#fff"></rect>
    <path d="M622.1,191.96h-17.9V111.4h17.9v80.56Zm-16.9-1h15.9V112.4h-15.9v78.56Z" fill="#002346"></path>
  </g>
  <g>
    <rect x="630.74" y="171.04" width="16.9" height="20.42" fill="#fff"></rect>
    <path d="M648.14,191.96h-17.9v-21.42h17.9v21.42Zm-16.9-1h15.9v-19.42h-15.9v19.42Z" fill="#002346"></path>
  </g>
  <g>
    <rect x="657.5" y="133.73" width="16.9" height="57.73" fill="#fff"></rect>
    <path d="M674.9,191.96h-17.9v-58.73h17.9v58.73Zm-16.9-1h15.9v-56.73h-15.9v56.73Z" fill="#002346"></path>
  </g>
  <g>
    <rect x="395.6" y="152.74" width="16.9" height="38.02" fill="#fff"></rect>
    <path d="M413,191.26h-17.9v-39.02h17.9v39.02Zm-16.9-1h15.9v-37.02h-15.9v37.02Z" fill="#002346"></path>
  </g>
  <g>
    <rect x="447.7" y="169.63" width="16.9" height="21.12" fill="#fff"></rect>
    <path d="M465.1,191.25h-17.9v-22.12h17.9v22.12Zm-16.9-1h15.9v-20.12h-15.9v20.12Z" fill="#002346"></path>
  </g>
  <g>
    <rect x="349.84" y="236.51" width="335.12" height="145.03" rx="11.07" ry="11.07" fill="#f69074"></rect>
    <path d="M673.89,382.04H360.91c-6.38,0-11.57-5.19-11.57-11.57v-122.89c0-6.38,5.19-11.57,11.57-11.57h312.98c6.38,0,11.57,5.19,11.57,11.57v122.89c0,6.38-5.19,11.57-11.57,11.57ZM360.91,237.01c-5.83,0-10.57,4.74-10.57,10.57v122.89c0,5.83,4.74,10.57,10.57,10.57h312.98c5.83,0,10.57-4.74,10.57-10.57v-122.89c0-5.83-4.74-10.57-10.57-10.57H360.91Z" fill="#002346"></path>
  </g>
  <g>
    <rect x="380.81" y="340.01" width="66.88" height="11.97" rx="5.98" ry="5.98" fill="#fff"></rect>
    <path d="M441.71,352.48h-54.92c-3.57,0-6.48-2.91-6.48-6.48s2.91-6.49,6.48-6.49h54.92c3.57,0,6.48,2.91,6.48,6.48s-2.91,6.49-6.48,6.49Zm-54.92-11.97c-3.02,0-5.48,2.46-5.48,5.48s2.46,5.49,5.48,5.49h54.92c3.02,0,5.48-2.46,5.48-5.48s-2.46-5.49-5.48-5.49h-54.92Z" fill="#002346"></path>
  </g>
  <g>
    <rect x="462.48" y="340.01" width="66.88" height="11.97" rx="5.98" ry="5.98" fill="#fff"></rect>
    <path d="M523.38,352.48h-54.92c-3.57,0-6.48-2.91-6.48-6.48s2.91-6.49,6.48-6.49h54.92c3.57,0,6.48,2.91,6.48,6.48s-2.91,6.49-6.48,6.49Zm-54.92-11.97c-3.02,0-5.48,2.46-5.48,5.48s2.46,5.49,5.48,5.49h54.92c3.02,0,5.48-2.46,5.48-5.48s-2.46-5.49-5.48-5.49h-54.92Z" fill="#002346"></path>
  </g>
  <g>
    <path d="M552.46,340.31h55.13c3.32,0,6.01,2.69,6.01,6.01h0c0,3.32-2.69,6.01-6.01,6.01h-55.13c-3.32,0-6.01-2.69-6.01-6.01h0c0-3.32,2.69-6.01,6.01-6.01Z" fill="#fff"></path>
    <path d="M607.59,352.83h-55.13c-3.59,0-6.51-2.92-6.51-6.51s2.92-6.51,6.51-6.51h55.13c3.59,0,6.51,2.92,6.51,6.51s-2.92,6.51-6.51,6.51Zm-55.13-12.02c-3.04,0-5.51,2.47-5.51,5.51s2.47,5.51,5.51,5.51h55.13c3.04,0,5.51-2.47,5.51-5.51s-2.47-5.51-5.51-5.51h-55.13Z" fill="#002346"></path>
  </g>
  <g>
    <circle cx="412.49" cy="292.13" r="33.09" fill="#fff"></circle>
    <path d="M412.49,325.72c-18.52,0-33.59-15.07-33.59-33.59s15.07-33.59,33.59-33.59,33.59,15.07,33.59,33.59-15.07,33.59-33.59,33.59Zm0-66.18c-17.97,0-32.59,14.62-32.59,32.59s14.62,32.59,32.59,32.59,32.59-14.62,32.59-32.59-14.62-32.59-32.59-32.59Z" fill="#002346"></path>
  </g>
  <g>
    <path d="M432.44,286.06c3.43,11.2-2.87,23.06-14.07,26.49-11.2,3.43-23.06-2.87-26.49-14.07-3.43-11.2,2.87-23.06,14.07-26.49,2.01-.62,4.1-.93,6.2-.93,.59,0,1.18,0,1.76,.07v-6.38c-.58,0-1.17-.05-1.76-.05-15.21,0-27.53,12.35-27.52,27.56,0,15.21,12.35,27.53,27.56,27.52,15.21,0,27.53-12.35,27.52-27.56,0-3.25-.58-6.48-1.71-9.52l-5.56,3.36Z" fill="#fbe493"></path>
    <path d="M412.16,320.28c-7.48,0-14.52-2.91-19.81-8.2-5.3-5.29-8.22-12.33-8.22-19.82,0-15.46,12.56-28.05,28.02-28.06,.3,0,.61,.01,.91,.03,.29,.01,.57,.02,.85,.02h.5v7.44l-.56-.07c-.55-.07-1.11-.07-1.7-.07-2.05,0-4.09,.31-6.05,.91-5.29,1.62-9.63,5.2-12.23,10.09-2.59,4.89-3.13,10.49-1.51,15.78,3.34,10.92,14.95,17.08,25.87,13.74,5.29-1.62,9.63-5.2,12.23-10.09,2.6-4.89,3.13-10.49,1.51-15.78l-.11-.37,6.41-3.88,.21,.57c1.15,3.11,1.73,6.38,1.74,9.7,0,7.49-2.91,14.53-8.2,19.83-5.29,5.3-12.33,8.22-19.82,8.22h-.02Zm-.01-55.08c-14.91,0-27.03,12.15-27.02,27.06,0,7.22,2.82,14.01,7.93,19.12,5.11,5.1,11.89,7.91,19.11,7.91h.02c7.22,0,14.01-2.82,19.12-7.93,5.1-5.11,7.91-11.9,7.91-19.12,0-3-.5-5.95-1.47-8.78l-4.71,2.84c1.56,5.43,.96,11.16-1.7,16.17-2.72,5.12-7.27,8.88-12.82,10.58-11.44,3.5-23.61-2.96-27.12-14.4-1.7-5.54-1.13-11.42,1.59-16.54,2.72-5.12,7.27-8.88,12.82-10.58,2.46-.75,4.97-1.08,7.61-.93v-5.34c-.13,0-.26,0-.39-.02-.29-.01-.58-.03-.87-.03Z" fill="#002346"></path>
  </g>
  <g>
    <circle cx="579.35" cy="293.54" r="33.09" fill="#fff"></circle>
    <path d="M579.35,327.13c-18.52,0-33.59-15.07-33.59-33.59s15.07-33.59,33.59-33.59,33.59,15.07,33.59,33.59-15.07,33.59-33.59,33.59Zm0-66.18c-17.97,0-32.59,14.62-32.59,32.59s14.62,32.59,32.59,32.59,32.59-14.62,32.59-32.59-14.62-32.59-32.59-32.59Z" fill="#002346"></path>
  </g>
  <g>
    <path d="M596.74,305.76c-6.68,9.62-19.9,12-29.52,5.32-9.62-6.68-12-19.9-5.32-29.52,3.97-5.71,10.48-9.11,17.43-9.11,.59,0,1.18,0,1.76,.07v-6.37c-.58,0-1.17-.06-1.76-.06-15.23,0-27.58,12.33-27.58,27.56,0,15.23,12.33,27.58,27.56,27.58,8.62,0,16.75-4.03,21.96-10.89l-4.53-4.58Z" fill="#fbe493"></path>
    <path d="M579.32,321.73h-.01c-15.48,0-28.06-12.6-28.06-28.08,0-7.5,2.93-14.55,8.23-19.84,5.3-5.3,12.35-8.21,19.84-8.21,.31,.02,.62,.02,.93,.03,.28,.01,.57,.03,.85,.03h.5v7.43l-.56-.07c-.55-.07-1.11-.07-1.7-.07h0c-6.78,0-13.14,3.33-17.01,8.9-6.51,9.38-4.18,22.31,5.19,28.82,9.38,6.52,22.31,4.19,28.82-5.19l.34-.49,5.26,5.32-.26,.35c-5.28,6.94-13.63,11.09-22.35,11.09Zm0-55.14c-7.23,0-14.02,2.81-19.13,7.92-5.12,5.11-7.93,11.91-7.94,19.14,0,14.93,12.13,27.08,27.06,27.08h.01c8.26,0,16.19-3.86,21.29-10.35l-3.81-3.85c-6.93,9.42-20.2,11.67-29.87,4.96-9.83-6.83-12.27-20.38-5.45-30.22,4.06-5.84,10.72-9.33,17.83-9.33h0c.41,0,.84,0,1.26,.02v-5.34c-.13,0-.27-.01-.4-.02-.29-.01-.6-.03-.87-.03Z" fill="#002346"></path>
  </g>
  <g>
    <circle cx="495.57" cy="292.13" r="33.09" transform="translate(127.83 734.51) rotate(-80.78)" fill="#fff"></circle>
    <path d="M495.57,325.72c-18.52,0-33.59-15.07-33.59-33.59s15.07-33.59,33.59-33.59,33.59,15.07,33.59,33.59-15.07,33.59-33.59,33.59Zm0-66.18c-17.97,0-32.59,14.62-32.59,32.59s14.62,32.59,32.59,32.59,32.59-14.62,32.59-32.59-14.62-32.59-32.59-32.59Z" fill="#002346"></path>
  </g>
  <g>
    <path d="M506.66,310.31c-10,6.11-23.05,2.95-29.16-7.04-6.11-10-2.95-23.05,7.04-29.16,3.32-2.03,7.13-3.1,11.01-3.11h1.56v-6.37h-1.57c-15.23,0-27.58,12.33-27.58,27.56,0,15.23,12.33,27.58,27.56,27.58,5.03,0,9.96-1.37,14.27-3.97l-3.13-5.49Z" fill="#fbe493"></path>
    <path d="M495.53,320.27h-.01c-15.48,0-28.06-12.61-28.06-28.08,0-7.5,2.93-14.55,8.23-19.84,5.3-5.3,12.35-8.21,19.84-8.21h2.08v7.37h-2.06c-3.8,0-7.51,1.06-10.75,3.04-9.75,5.95-12.83,18.72-6.88,28.47,5.95,9.75,18.72,12.83,28.47,6.88l.44-.27,3.63,6.36-.42,.25c-4.38,2.64-9.4,4.04-14.51,4.04Zm0-55.14c-7.23,0-14.02,2.81-19.13,7.92-5.12,5.11-7.93,11.91-7.94,19.14,0,7.23,2.81,14.03,7.92,19.15s11.91,7.93,19.14,7.94h.01c4.77,0,9.46-1.26,13.58-3.65l-2.63-4.62c-10.16,5.88-23.25,2.6-29.4-7.47-6.24-10.22-3.01-23.6,7.21-29.84,3.4-2.07,7.29-3.17,11.27-3.18h1.06v-5.37h-1.08Z" fill="#002346"></path>
  </g>
  <g>
    <path d="M357.91,398.44h319c4.46,0,8.07,3.61,8.07,8.07h0v81.34H349.84v-81.34c0-4.46,3.61-8.07,8.07-8.07h0Z" fill="#f69074"></path>
    <path d="M685.48,488.35H349.34v-81.84c0-4.73,3.84-8.57,8.57-8.57h319c4.73,0,8.57,3.84,8.57,8.57v81.84Zm-335.14-1h334.14v-80.84c0-4.17-3.4-7.57-7.57-7.57H357.91c-4.17,0-7.57,3.4-7.57,7.57v80.84Z" fill="#002346"></path>
  </g>
  <g>
    <rect x="438.54" y="422.38" width="71.11" height="5.63" fill="#fff"></rect>
    <path d="M510.15,428.51h-72.11v-6.63h72.11v6.63Zm-71.11-1h70.11v-4.63h-70.11v4.63Z" fill="#002346"></path>
  </g>
  <g>
    <rect x="411.09" y="440.68" width="98.56" height="5.63" fill="#fff"></rect>
    <path d="M510.15,446.81h-99.56v-6.63h99.56v6.63Zm-98.56-1h97.56v-4.63h-97.56v4.63Z" fill="#002346"></path>
  </g>
  <g>
    <rect x="389.26" y="449.13" width="120.39" height="5.63" fill="#fff"></rect>
    <path d="M510.15,455.26h-121.39v-6.63h121.39v6.63Zm-120.39-1h119.39v-4.63h-119.39v4.63Z" fill="#002346"></path>
  </g>
  <g>
    <rect x="375.18" y="457.58" width="134.47" height="5.63" fill="#fff"></rect>
    <path d="M510.15,463.71h-135.47v-6.63h135.47v6.63Zm-134.47-1h133.47v-4.63h-133.47v4.63Z" fill="#002346"></path>
  </g>
  <g>
    <rect x="447.7" y="466.03" width="61.95" height="5.63" fill="#fff"></rect>
    <path d="M510.15,472.16h-62.95v-6.63h62.95v6.63Zm-61.95-1h60.95v-4.63h-60.95v4.63Z" fill="#002346"></path>
  </g>
  <g>
    <rect x="429.39" y="474.48" width="80.26" height="5.63" fill="#fff"></rect>
    <path d="M510.15,480.61h-81.26v-6.63h81.26v6.63Zm-80.26-1h79.26v-4.63h-79.26v4.63Z" fill="#002346"></path>
  </g>
  <g>
    <rect x="412.49" y="483.63" width="97.16" height="4.22" fill="#fff"></rect>
    <path d="M510.15,488.35h-98.16v-5.22h98.16v5.22Zm-97.16-1h96.16v-3.22h-96.16v3.22Z" fill="#002346"></path>
  </g>
  <g>
    <rect x="485.01" y="431.53" width="24.64" height="5.63" fill="#fff"></rect>
    <path d="M510.15,437.66h-25.64v-6.63h25.64v6.63Zm-24.64-1h23.64v-4.63h-23.64v4.63Z" fill="#002346"></path>
  </g>
  <g>
    <rect x="527.25" y="422.38" width="71.11" height="5.63" fill="#fff"></rect>
    <path d="M598.86,428.51h-72.11v-6.63h72.11v6.63Zm-71.11-1h70.11v-4.63h-70.11v4.63Z" fill="#002346"></path>
  </g>
  <g>
    <rect x="527.26" y="440.69" width="98.56" height="5.63" fill="#fff"></rect>
    <path d="M626.32,446.82h-99.56v-6.63h99.56v6.63Zm-98.56-1h97.56v-4.63h-97.56v4.63Z" fill="#002346"></path>
  </g>
  <g>
    <rect x="527.25" y="449.14" width="120.39" height="5.63" fill="#fff"></rect>
    <path d="M648.14,455.27h-121.39v-6.63h121.39v6.63Zm-120.39-1h119.39v-4.63h-119.39v4.63Z" fill="#002346"></path>
  </g>
  <g>
    <rect x="527.25" y="457.58" width="134.47" height="5.63" fill="#fff"></rect>
    <path d="M662.22,463.71h-135.47v-6.63h135.47v6.63Zm-134.47-1h133.47v-4.63h-133.47v4.63Z" fill="#002346"></path>
  </g>
  <g>
    <rect x="527.26" y="466.03" width="61.95" height="5.63" fill="#fff"></rect>
    <path d="M589.71,472.16h-62.95v-6.63h62.95v6.63Zm-61.95-1h60.95v-4.63h-60.95v4.63Z" fill="#002346"></path>
  </g>
  <g>
    <rect x="527.25" y="474.48" width="80.26" height="5.63" fill="#fff"></rect>
    <path d="M608.01,480.61h-81.26v-6.63h81.26v6.63Zm-80.26-1h79.26v-4.63h-79.26v4.63Z" fill="#002346"></path>
  </g>
  <g>
    <rect x="527.25" y="483.63" width="97.16" height="4.22" fill="#fff"></rect>
    <path d="M624.91,488.35h-98.16v-5.22h98.16v5.22Zm-97.16-1h96.16v-3.22h-96.16v3.22Z" fill="#002346"></path>
  </g>
  <g>
    <rect x="527.25" y="431.54" width="24.64" height="5.63" fill="#fff"></rect>
    <path d="M552.39,437.67h-25.64v-6.63h25.64v6.63Zm-24.64-1h23.64v-4.63h-23.64v4.63Z" fill="#002346"></path>
  </g>
  <g>
    <path d="M238.06,244.8l9.51,2.51,4.15-15.76-9.72-2.55c.29-6.09-.78-12.16-3.13-17.78l9.21-5.68-8.55-13.88-9.81,6c-3.39-3.32-7.33-6.03-11.65-8l3.13-11.85-15.76-4.16-3.25,12.35c-5.2-.17-10.39,.65-15.28,2.42l-5.26-9.18-14.14,8.1,5.47,9.56c-3.59,3.32-6.55,7.26-8.76,11.62l-9.74-2.57-4.15,15.76,9.53,2.52c-.37,5.21,.27,10.45,1.86,15.43l-10.72,6.6,8.55,13.88,10.18-6.28c3.36,3.93,7.43,7.2,12,9.61l-2.85,10.8,15.76,4.17,2.74-10.38c5.21,.46,10.46-.08,15.46-1.59l4.92,8.6,14.15-8.1-4.71-8.22c4.6-3.8,8.3-8.56,10.86-13.95Z" fill="#f69074"></path>
    <path d="M195,279.05l-16.73-4.43,2.88-10.9c-4.38-2.37-8.25-5.46-11.52-9.22l-10.24,6.32-9.07-14.73,10.81-6.66c-1.49-4.81-2.09-9.8-1.79-14.83l-9.61-2.54,4.4-16.73,9.83,2.6c2.16-4.17,4.98-7.91,8.39-11.13l-5.52-9.65,15.01-8.6,5.3,9.25c4.73-1.66,9.66-2.44,14.67-2.32l3.28-12.45,16.73,4.42-3.15,11.93c4.11,1.93,7.85,4.5,11.13,7.65l9.9-6.06,9.07,14.73-9.27,5.72c2.2,5.42,3.24,11.35,3.02,17.2l9.81,2.58-4.4,16.73-9.59-2.53c-2.51,5.14-6.12,9.79-10.49,13.48l4.75,8.29-15.02,8.6-4.97-8.69c-4.83,1.41-9.82,1.93-14.85,1.53l-2.76,10.46Zm-15.51-5.14l14.79,3.91,2.72-10.3,.42,.04c5.17,.46,10.3-.07,15.27-1.57l.38-.12,4.87,8.51,13.28-7.6-4.67-8.15,.32-.27c4.51-3.73,8.22-8.49,10.73-13.78l.18-.37,9.43,2.49,3.9-14.79-9.63-2.53,.02-.4c.29-5.97-.78-12.05-3.09-17.56l-.16-.39,9.15-5.64-8.03-13.03-9.72,5.94-.28-.27c-3.36-3.29-7.23-5.95-11.51-7.9l-.38-.18,3.11-11.77-14.79-3.9-3.22,12.25h-.4c-5.16-.19-10.24,.62-15.09,2.38l-.4,.14-5.22-9.11-13.27,7.6,5.42,9.47-.29,.27c-3.56,3.29-6.47,7.15-8.65,11.48l-.18,.36-9.65-2.55-3.9,14.79,9.45,2.5-.03,.41c-.36,5.17,.26,10.3,1.84,15.24l.12,.37-10.63,6.54,8.02,13.03,10.12-6.24,.28,.33c3.33,3.9,7.32,7.1,11.85,9.49l.35,.19-2.82,10.7Z" fill="#002346"></path>
  </g>
  <path d="M200.99,253.35c-3.35,0-6.75-.62-10.05-1.93-13.99-5.56-20.84-21.46-15.29-35.45,2.68-6.75,8.05-12.24,14.74-15.06,.27-.12,.59,.01,.7,.28,.11,.27-.01,.59-.29,.7-6.42,2.72-11.59,7.99-14.16,14.47-5.34,13.44,1.25,28.71,14.69,34.05,13.44,5.34,28.72-1.25,34.05-14.69,2.59-6.51,2.48-13.64-.29-20.07-2.77-6.43-7.89-11.4-14.4-13.99-.27-.11-.41-.42-.3-.7s.42-.41,.7-.3c6.78,2.69,12.1,7.86,14.98,14.56,2.89,6.7,2.99,14.11,.3,20.89-4.25,10.69-14.54,17.22-25.4,17.22Z" fill="#002346"></path>
  <path d="M201.05,236.45c-5.73,0-10.4-4.66-10.4-10.4s4.66-10.4,10.4-10.4,10.4,4.66,10.4,10.4-4.66,10.4-10.4,10.4Zm0-19.72c-5.14,0-9.32,4.18-9.32,9.32s4.18,9.32,9.32,9.32,9.32-4.18,9.32-9.32-4.18-9.32-9.32-9.32Z" fill="#002346"></path>
  <g>
    <path d="M263.27,158.56l5,1.3,2.16-8.21-5.06-1.34c.15-3.17-.41-6.33-1.64-9.26l4.81-3-4.54-7.19-5.08,3.14c-1.76-1.74-3.82-3.15-6.07-4.18l1.63-6.18-8.21-2.17-1.69,6.41c-2.72-.09-5.44,.33-8,1.26l-2.73-4.78-7.38,4.22,2.86,5c-1.88,1.73-3.42,3.78-4.57,6.06l-5.08-1.34-2.16,8.21,5,1.31c-.18,2.72,.15,5.46,1,8.05l-5.62,3.46,4.46,7.23,5.31-3.27c1.75,2.05,3.88,3.75,6.27,5l-1.49,5.62,8.21,2.17,1.43-5.4c2.72,.24,5.45-.04,8.06-.83l2.56,4.48,7.38-4.22-2.46-4.29c2.38-1.98,4.31-4.46,5.64-7.26Z" fill="#f69074"></path>
    <path d="M241.02,176.69l-9.18-2.43,1.52-5.72c-2.19-1.2-4.13-2.74-5.78-4.61l-5.38,3.31-4.99-8.08,5.71-3.52c-.74-2.42-1.05-4.92-.93-7.45l-5.09-1.33,2.41-9.18,5.18,1.37c1.09-2.08,2.5-3.95,4.2-5.57l-2.91-5.09,8.25-4.72,2.77,4.85c2.39-.81,4.87-1.2,7.39-1.16l1.72-6.51,9.18,2.43-1.65,6.26c2.04,.98,3.9,2.27,5.55,3.83l5.17-3.2,5.07,8.03-4.88,3.04c1.09,2.74,1.61,5.73,1.53,8.68l5.16,1.37-2.41,9.17-5.09-1.32c-1.28,2.57-3.1,4.9-5.27,6.79l2.5,4.36-8.25,4.72-2.61-4.57c-2.43,.69-4.93,.95-7.45,.77l-1.45,5.48Zm-7.95-3.14l7.24,1.91,1.41-5.32,.42,.04c2.66,.24,5.31-.04,7.87-.81l.38-.12,2.51,4.39,6.51-3.72-2.42-4.22,.32-.27c2.31-1.92,4.22-4.37,5.51-7.09l.18-.37,4.92,1.28,1.91-7.25-4.97-1.32,.02-.4c.14-3.08-.41-6.2-1.6-9.04l-.17-.39,4.74-2.96-4.01-6.35-4.99,3.09-.28-.28c-1.73-1.7-3.72-3.07-5.93-4.08l-.38-.18,1.61-6.1-7.24-1.91-1.66,6.31h-.4c-2.67-.12-5.3,.31-7.81,1.22l-.4,.14-2.69-4.71-6.51,3.72,2.81,4.91-.29,.27c-1.84,1.69-3.34,3.68-4.46,5.92l-.18,.36-4.99-1.32-1.91,7.24,4.92,1.29-.03,.41c-.18,2.67,.15,5.32,.98,7.86l.12,.38-5.53,3.4,3.93,6.38,5.25-3.23,.28,.33c1.72,2.01,3.78,3.65,6.12,4.88l.35,.18-1.46,5.52Z" fill="#002346"></path>
  </g>
  <path d="M243.96,163.27c-1.77,0-3.58-.33-5.32-1.02-7.42-2.95-11.07-11.38-8.12-18.81,1.42-3.58,4.27-6.5,7.82-8,.27-.12,.59,.01,.7,.28,.12,.27-.01,.59-.28,.7-3.29,1.39-5.93,4.09-7.24,7.41-2.73,6.88,.65,14.69,7.52,17.42,6.88,2.73,14.69-.65,17.42-7.52,2.73-6.88-.65-14.69-7.52-17.42-.27-.11-.41-.42-.3-.7,.11-.28,.42-.41,.7-.3,7.42,2.95,11.07,11.38,8.12,18.81-2.25,5.68-7.72,9.14-13.48,9.14Z" fill="#002346"></path>
  <path d="M243.98,154.46c-3.13,0-5.68-2.55-5.68-5.68s2.55-5.68,5.68-5.68,5.68,2.55,5.68,5.68-2.55,5.68-5.68,5.68Zm0-10.28c-2.54,0-4.6,2.06-4.6,4.6s2.07,4.6,4.6,4.6,4.6-2.07,4.6-4.6-2.07-4.6-4.6-4.6Z" fill="#002346"></path>
  <g>
    <polygon points="677.81 507.15 696.65 507.15 696.65 623.46 677.81 623.46 677.81 507.15 677.81 507.15" fill="#fff" fill-rule="evenodd"></polygon>
    <path d="M697.15,623.96h-19.84v-117.31h19.84v117.31Zm-18.84-1h17.84v-115.31h-17.84v115.31Z" fill="#002346"></path>
  </g>
  <g>
    <path d="M751,635.29h-10c0-3.22-5.13-6.83-12-6.83h-76.3c-6.87,0-12,3.61-12,6.83h-10c0-9.44,9.66-16.83,22-16.83h76.3c12.34,0,22,7.39,22,16.83Z" fill="#e6e7e8"></path>
    <path d="M751.5,635.79h-11v-.5c0-2.93-5.02-6.33-11.5-6.33h-76.3c-6.48,0-11.5,3.4-11.5,6.33v.5h-11v-.5c0-9.72,9.88-17.33,22.5-17.33h76.3c12.62,0,22.5,7.61,22.5,17.33v.5Zm-10.04-1h9.03c-.34-8.92-9.65-15.83-21.49-15.83h-76.3c-11.84,0-21.15,6.91-21.49,15.83h9.03c.46-3.33,5.45-6.83,12.46-6.83h76.3c7.01,0,12,3.5,12.46,6.83Z" fill="#002346"></path>
  </g>
  <g>
    <path d="M773.33,316.76h-60.73l-22.8,152.31h64c7.25-.22,13.33-5.52,14.56-12.66l18.52-123.77c1.32-8.77-4.73-15.88-13.5-15.88" fill="#e6e7e8"></path>
    <path d="M689.8,469.57h-.58l22.95-153.31h61.16v1h-60.3l-22.65,151.31h63.42c6.96-.21,12.89-5.36,14.07-12.25l18.52-123.76c.62-4.13-.41-7.99-2.9-10.89-2.45-2.85-6.04-4.42-10.1-4.42v-1c4.36,0,8.22,1.69,10.86,4.77,2.68,3.12,3.8,7.27,3.13,11.69l-18.52,123.77c-1.26,7.36-7.59,12.86-15.04,13.09h-64.02Z" fill="#002346"></path>
  </g>
  <g>
    <path d="M761.68,316.76h-72.68c-8.55,0-15.8,6.26-17.07,14.71l-18.56,123.86c-.96,6.56,3.58,12.65,10.13,13.61,.57,.08,1.14,.13,1.71,.13h76.9c7.24-.22,13.33-5.52,14.55-12.66l18.53-123.77c1.31-8.77-4.74-15.88-13.51-15.88" fill="#fff"></path>
    <path d="M665.21,469.57c-.59,0-1.19-.05-1.78-.13-3.3-.48-6.22-2.23-8.21-4.9-1.99-2.68-2.82-5.97-2.34-9.28l18.56-123.86c1.31-8.77,8.7-15.13,17.56-15.14h72.68v1h-72.68c-8.36,0-15.34,6.01-16.58,14.28l-18.56,123.86c-.45,3.04,.32,6.07,2.15,8.53,1.83,2.46,4.52,4.07,7.56,4.51,.54,.08,1.09,.12,1.64,.12h76.9c6.96-.21,12.88-5.37,14.06-12.24l18.53-123.76c.62-4.13-.42-8-2.91-10.89-2.45-2.85-6.04-4.42-10.1-4.42v-1c4.36,0,8.21,1.69,10.86,4.76,2.69,3.12,3.8,7.27,3.14,11.69l-18.53,123.77c-1.26,7.36-7.58,12.86-15.03,13.09h-76.92Z" fill="#002346"></path>
  </g>
  <g>
    <path d="M753.89,469.06h-125.08c-1.34,0-2.42,1.07-2.43,2.41h0c0,9.95,8.06,18.01,18,18.01h91.49c9.94,0,18-8.06,18-18v-2.42h.02Z" fill="#fff"></path>
    <path d="M735.87,489.98h-91.49c-10.2,0-18.5-8.3-18.5-18.5,0-.79,.31-1.52,.86-2.07,.55-.55,1.28-.85,2.06-.85h125.09v.5h.48v2.42c0,10.2-8.3,18.5-18.5,18.5Zm-107.07-20.42c-.51,0-.99,.2-1.35,.56-.36,.36-.57,.84-.57,1.36,0,9.66,7.85,17.51,17.5,17.51h91.49c9.65,0,17.5-7.85,17.5-17.5v-1.92h-124.57Z" fill="#002346"></path>
  </g>
  <g>
    <path d="M716,507.15h-57.53c-3.59,0-6.5-2.91-6.5-6.5v-11.2h70.51v11.2c0,3.58-2.9,6.49-6.48,6.5h-.02" fill="#e6e7e8"></path>
    <path d="M716,507.65v-.02s0,.02,0,.02h-57.53c-3.86,0-7-3.14-7-7v-11.7h71.51v11.7c0,3.85-3.12,6.99-6.98,7Zm-63.53-17.7v10.7c0,3.31,2.69,6,6,6h57.51c3.32,0,6-2.7,6-6v-10.7h-69.51Z" fill="#002346"></path>
  </g>
  <g>
    <path d="M758.6,635.29c0,6.96-5.63,12.6-12.59,12.61s-12.6-5.63-12.61-12.59c0-6.96,5.63-12.6,12.59-12.61h.01c6.95,0,12.58,5.64,12.59,12.59" fill="#fff"></path>
    <path d="M746,648.4c-3.5,0-6.78-1.36-9.25-3.83-2.48-2.47-3.84-5.76-3.84-9.26,0-7.22,5.87-13.1,13.09-13.11,7.22,0,13.09,5.88,13.1,13.09h.01c0,7.22-5.87,13.1-13.09,13.11h-.01Zm0-25.2c-6.68,0-12.1,5.44-12.1,12.11,0,3.23,1.26,6.27,3.55,8.55,2.28,2.28,5.32,3.54,8.55,3.54h.01c6.67,0,12.1-5.44,12.09-12.11h-.01c0-6.66-5.43-12.08-12.09-12.09Z" fill="#002346"></path>
  </g>
  <g>
    <path d="M752.64,635.3c0,3.67-2.97,6.64-6.64,6.64-3.67,0-6.64-2.97-6.64-6.64,0-3.67,2.97-6.64,6.64-6.64h0c3.66,0,6.63,2.97,6.63,6.63h0" fill="#e6e7e8"></path>
    <path d="M746,642.44c-3.94,0-7.14-3.2-7.14-7.14s3.2-7.14,7.14-7.14,7.14,3.2,7.14,7.13h0c0,3.95-3.2,7.15-7.14,7.15Zm0-13.28c-3.4,0-6.15,2.75-6.15,6.14s2.75,6.14,6.14,6.14,6.14-2.75,6.14-6.14h0c0-3.39-2.75-6.14-6.13-6.14Z" fill="#002346"></path>
  </g>
  <g>
    <path d="M648,635.29c0,6.96-5.63,12.6-12.59,12.61-6.96,0-12.6-5.63-12.61-12.59,0-6.96,5.63-12.6,12.59-12.61h.02c6.95,0,12.58,5.64,12.59,12.59" fill="#fff"></path>
    <path d="M635.4,648.4c-3.5,0-6.78-1.36-9.25-3.83-2.48-2.47-3.84-5.76-3.84-9.26,0-7.22,5.87-13.1,13.09-13.11,7.23,0,13.1,5.88,13.11,13.09,0,7.22-5.87,13.1-13.09,13.11h-.01Zm.01-25.2c-6.69,0-12.11,5.44-12.11,12.11,0,3.23,1.26,6.27,3.55,8.55,2.28,2.28,5.32,3.54,8.55,3.54h.01c6.67,0,12.1-5.44,12.09-12.11,0-6.66-5.43-12.08-12.09-12.09Z" fill="#002346"></path>
  </g>
  <g>
    <path d="M642,635.29c0,3.67-2.97,6.64-6.64,6.64-3.67,0-6.64-2.97-6.64-6.64,0-3.67,2.97-6.64,6.64-6.64h0c3.66,0,6.63,2.97,6.63,6.63h0" fill="#e6e7e8"></path>
    <path d="M635.36,642.43c-3.94,0-7.14-3.2-7.14-7.14s3.2-7.14,7.14-7.14,7.14,3.2,7.14,7.13h0c0,3.95-3.2,7.15-7.14,7.15Zm.01-13.28c-3.4,0-6.15,2.75-6.15,6.14s2.75,6.14,6.14,6.14,6.14-2.75,6.14-6.14h0c0-3.39-2.75-6.14-6.13-6.14Z" fill="#002346"></path>
  </g>
  <g>
    <path d="M554.66,589.11l-1.8,20.11s2.71,7.21,9.77,8.54c4.01,.84,8.17,.52,12-.92l7.42-31.21-27.39,3.48h0Z" fill="#f2b3c1"></path>
    <path d="M567.05,618.71c-1.51,0-3.03-.16-4.52-.47-7.24-1.36-10.02-8.54-10.13-8.85l-.04-.1,1.85-20.62,.39-.05,28.09-3.57-7.64,32.16-.25,.09c-2.49,.94-5.12,1.41-7.75,1.41Zm-13.69-9.56c.36,.86,3.11,6.95,9.36,8.13,3.85,.81,7.81,.53,11.49-.81l7.19-30.26-26.29,3.34-1.75,19.6Z" fill="#002346"></path>
  </g>
  <g>
    <path d="M585.51,646.69h-76.83c-.71,0-1.29-.58-1.29-1.29,.02-1.79,.18-3.58,.48-5.35,1-6,4.08-14.15,13.39-16.34,8.46-1.99,14.36-4.57,17.92-6.45,2.44-1.29,4.3-3.47,5.14-6.1,1.04-3.3,2.86-7.71,5.09-7.81,3.58-.16,4.69,5.88,6.78,7.33s5.86,1.57,8.6,1.57c9.39,0,11.1-6.13,15.4-3.79,2.35,1.29,6.71,21,8.91,31.62,.12,.64,.26,1.24,.37,1.8,.46,2.16-.91,4.29-3.07,4.75-.31,.07-.62,.1-.93,.09" fill="#f69074"></path>
    <path d="M585.56,647.21s-.06,0-.1,0v-.02s-76.78,0-76.78,0c-.99,0-1.79-.8-1.79-1.79,.02-1.82,.18-3.64,.49-5.43,1.07-6.41,4.33-14.52,13.77-16.74,8.49-2,14.37-4.59,17.8-6.41,2.37-1.25,4.11-3.32,4.9-5.81,1.69-5.33,3.55-8.08,5.55-8.16,2.58-.12,3.92,2.4,5.13,4.61,.65,1.2,1.27,2.33,1.96,2.81,1.88,1.3,5.26,1.48,8.31,1.48,4.7,0,7.39-1.56,9.55-2.82,2.1-1.22,3.76-2.18,6.09-.91,1.9,1.04,4.98,11.8,9.16,31.96,.07,.37,.14,.72,.22,1.06,.05,.26,.11,.5,.15,.75,.52,2.42-1.03,4.82-3.46,5.34-.31,.07-.63,.1-.95,.1Zm-.05-1c.26,0,.53-.02,.79-.08,1.89-.41,3.09-2.27,2.69-4.16-.05-.25-.1-.49-.15-.74-.07-.34-.15-.7-.22-1.07-5.75-27.76-8.08-30.96-8.66-31.27-1.84-1-3.07-.28-5.11,.9-2.14,1.25-5.08,2.95-10.05,2.95-3.21,0-6.78-.2-8.89-1.66-.88-.61-1.55-1.84-2.26-3.15-1.12-2.05-2.32-4.15-4.21-4.09-1.47,.07-3.16,2.79-4.64,7.47-.87,2.74-2.78,5.01-5.38,6.39-3.49,1.85-9.44,4.47-18.04,6.5-8.91,2.09-11.99,9.82-13.01,15.94-.3,1.74-.45,3.51-.47,5.27,0,.43,.35,.79,.79,.79h76.83v.02Z" fill="#002346"></path>
  </g>
  <g>
    <path d="M585.51,646.69h-76.83c-.71,0-1.29-.58-1.29-1.29,.02-1.79,.18-3.58,.48-5.35h81.23c.12,.64,.26,1.24,.37,1.8,.46,2.16-.91,4.29-3.07,4.75-.31,.07-.62,.1-.93,.09" fill="#fff"></path>
    <path d="M585.56,647.19s-.06,0-.09,0h-76.79c-.99,0-1.79-.8-1.79-1.79,.02-1.82,.18-3.64,.49-5.43l.07-.42h82.07l.08,.41c.07,.36,.14,.71,.21,1.05,.05,.26,.11,.51,.16,.75,.52,2.42-1.03,4.82-3.46,5.34-.31,.07-.63,.1-.95,.1Zm-.05-1c.27,0,.53-.02,.79-.08,1.89-.41,3.09-2.27,2.69-4.16-.05-.25-.1-.49-.15-.74-.05-.22-.09-.44-.14-.66h-80.39c-.25,1.6-.39,3.23-.4,4.85,0,.43,.35,.79,.79,.79h76.83Z" fill="#002346"></path>
  </g>
  <g>
    <path d="M648.31,596.32l6.69,19.07s5.45,5.44,12.42,3.74c4.01-.89,7.67-2.89,10.58-5.79l-6.13-31.49-23.52,14.47h-.04Z" fill="#f2b3c1"></path>
    <path d="M664.65,619.96c-5.7,0-9.8-4.02-10-4.22l-.12-.18-6.92-19.73h.59l24.01-14.77,6.32,32.44-.19,.19c-2.98,2.97-6.72,5.01-10.82,5.92-.99,.24-1.95,.35-2.87,.35Zm-9.23-4.84c.68,.63,5.71,5.04,11.88,3.54,3.85-.85,7.35-2.74,10.16-5.48l-5.94-30.53-22.61,13.91,6.51,18.56Z" fill="#002346"></path>
  </g>
  <g>
    <path d="M618.26,421.8s-47.69,17.89-52,20.38c-4.31,2.49-10.49,9.19-11.85,23.49-1.36,14.3-4.27,125-4.27,125l35.4,7.26,20.64-112.55c.37-1.99,1.51-3.76,3.17-4.91l84.65-58.67h-75.74Z" fill="#fbe493"></path>
    <path d="M585.94,598.52l-36.31-7.45v-.42c.04-1.11,2.94-110.88,4.28-125.03,1.53-16.13,8.97-22.07,12.1-23.88,4.3-2.48,50.13-19.68,52.07-20.42l.18-.03h77.34l-85.96,59.58c-1.57,1.09-2.62,2.72-2.96,4.59l-20.73,113.05Zm-35.29-8.26l34.49,7.07,20.55-112.05c.39-2.14,1.59-4,3.38-5.23l83.34-57.76h-74.05c-2.28,.85-47.7,17.92-51.84,20.31-2.99,1.73-10.11,7.44-11.6,23.1-1.3,13.68-4.06,117.07-4.26,124.55Z" fill="#002346"></path>
  </g>
  <g>
    <path d="M710,394.72s-72.16,46-81,54.76c-6.65,6.58-13.61,15-9.53,32.23,4.08,17.23,24.26,116.2,24.26,116.2l34.61-7.54-12.09-113.2,47-10c13.24-4.36,22.23-12.38,22.23-26.32v-19.05l-25.48-27.08Z" fill="#fbe493"></path>
    <path d="M643.34,598.51l-.1-.5c-.2-.99-20.23-99.16-24.26-116.18-4.1-17.3,2.84-25.95,9.67-32.7,8.78-8.7,78.13-52.95,81.08-54.83l.35-.22,25.9,27.53v19.25c0,12.85-7.59,21.86-22.57,26.79l-46.61,9.92,12.09,113.2-35.54,7.74Zm66.58-203.14c-5.46,3.48-72.18,46.16-80.57,54.47-6.93,6.86-13.37,14.97-9.4,31.76,3.89,16.41,22.61,108.1,24.16,115.72l33.68-7.34-12.09-113.2,47.44-10.09c14.47-4.77,21.83-13.46,21.83-25.83v-18.85l-25.06-26.63Z" fill="#002346"></path>
  </g>
  <g>
    <path d="M624.31,293.57s-6.19,4-9.11,9.53c-7.62,14.53-11.3,62.66-11.3,62.66l-5.24,29,28.83,4.76,9.29-72.79-12.47-33.12v-.04Z" fill="#f69074"></path>
    <path d="M627.92,400.1l-29.84-4.93,5.33-29.5c.14-1.92,3.77-48.35,11.35-62.8,2.95-5.58,9.02-9.55,9.28-9.72l.77-.5v.87l12.48,33.15-9.37,73.43Zm-28.68-5.75l27.82,4.59,9.21-72.15-12.21-32.44c-1.54,1.09-6.08,4.56-8.41,8.98-7.48,14.27-11.21,61.98-11.24,62.46l-5.16,28.55Z" fill="#002346"></path>
  </g>
  <g>
    <path d="M647.52,284.81s-19.76,3.62-26.65,11.66c-11.2,13.09,6.25,80.13,6.25,80.13l-.74,42.93s11.34,9.64,32.63,8.1c18.18-1.32,26.65-7.28,46.87-11.57,20.22-4.29,29.67,5.74,29.67,5.74l-5-18.68s-.1-98.81-2.83-104.94c-2.73-6.13-30.19-10.67-30.19-10.67l-50-2.7h0Z" fill="#f69074"></path>
    <path d="M654.51,428.29c-18.36,0-28.34-8.29-28.45-8.38l-.18-.15,.74-43.1c-.93-3.58-17.29-67.47-6.13-80.51,6.93-8.08,26.13-11.68,26.94-11.83h.1s50.03,2.69,50.03,2.69c1.19,.19,27.81,4.66,30.62,10.97,2.73,6.13,2.87,100.18,2.87,105.08l5.49,20.52-1.36-1.43c-.09-.1-9.52-9.78-29.2-5.59-8.32,1.77-14.51,3.77-20.5,5.71-8.43,2.73-15.71,5.09-26.44,5.87-1.57,.11-3.08,.17-4.54,.17Zm-27.62-9c1.53,1.19,12.7,9.25,32.09,7.84,10.61-.77,17.84-3.11,26.2-5.82,5.73-1.86,12.22-3.96,20.6-5.74,16.14-3.43,25.63,2.28,28.87,4.79l-4.6-17.24c0-.99-.13-98.77-2.79-104.74-2.15-4.83-22.25-9.13-29.81-10.38l-49.89-2.69c-1.15,.22-19.79,3.88-26.31,11.48-10.9,12.74,6.18,79.01,6.35,79.68l.02,.07v.07s-.74,42.68-.74,42.68Z" fill="#002346"></path>
  </g>
  <g>
    <path d="M683.18,253.13s.16,20.63,1.75,28.8l-19.51,17.45c-.18,.16-.48,.1-.58-.12l-7.49-16.65s.26-4.13-.8-6.65c-.92-2.19,26.62-22.83,26.62-22.83" fill="#f2b3c1"></path>
    <path d="M665.18,299.96c-.06,0-.12,0-.18-.02-.27-.06-.49-.24-.6-.49l-7.54-16.76v-.12s.25-4.05-.75-6.43c-.93-2.21,16.38-15.62,26.78-23.41l.78-.58v.97c0,.21,.19,20.68,1.75,28.71l.05,.27-.21,.19-19.51,17.45c-.16,.14-.36,.22-.57,.22Zm-7.32-17.45l7.37,16.38,19.17-17.15c-1.34-7.25-1.64-23.5-1.7-27.64-12.5,9.41-25.55,20.06-25.67,21.73,.99,2.31,.86,5.95,.83,6.68Z" fill="#002346"></path>
  </g>
  <g>
    <rect x="638.55" y="211.44" width="45" height="66" rx="22.5" ry="22.5" fill="#f2b3c1"></rect>
    <path d="M661.05,277.93c-12.68,0-22.99-10.31-22.99-22.99v-21c0-12.68,10.31-22.99,22.99-22.99s22.99,10.31,22.99,22.99v21c0,12.68-10.31,22.99-22.99,22.99Zm0-66c-12.14,0-22.01,9.87-22.01,22.01v21c0,12.14,9.87,22.01,22.01,22.01s22.01-9.87,22.01-22.01v-21c0-12.14-9.87-22.01-22.01-22.01Z" fill="#002346"></path>
  </g>
  <g>
    <polygon points="684.05 232.67 684.03 244.41 688.74 245.64 691.07 228.75 684.05 232.67 684.05 232.67" fill="#002346"></polygon>
    <path d="M689.16,246.27l-5.63-1.47,.02-12.42,8.15-4.55-2.54,18.44Zm-4.63-2.24l3.79,.99,2.12-15.34-5.89,3.29-.02,11.06Z" fill="#002346"></path>
  </g>
  <g>
    <path d="M683.17,233.32c-2.34,.45-11.18,.13-13.47-5,0,0-8.17,6.08-16.06,1.13,0,0-22.29,8.34-27-8.17-3.29-11.47,3.86-21.8,14.82-21.79,5.07,0,8.91,4.6,8.91,4.6,4.66-2.82,10.29-3.58,15.53-2.09,9,2.48,10.89,7.89,10.89,7.89,0,0,13.42,2.7,15.21,12.42,1.42,7.69-6,10.47-8.83,11" fill="#002346"></path>
    <path d="M681.2,233.96c-3.47,0-9.47-.93-11.7-4.91-1.9,1.21-9.02,5.12-15.92,.95-1.77,.63-12.64,4.18-20.46,.23-3.45-1.74-5.79-4.71-6.96-8.82-1.69-5.9-.76-11.81,2.57-16.22,2.98-3.95,7.61-6.21,12.72-6.21h.02c4.5,0,8.01,3.38,9.01,4.46,4.69-2.71,10.34-3.41,15.57-1.93,8.11,2.23,10.6,6.78,11.12,7.94,1.97,.45,13.63,3.47,15.34,12.76,1.39,7.53-5.43,10.87-9.23,11.58h0c-.45,.1-1.17,.16-2.06,.16Zm1.87-1.13l.16,.85-.16-.86c.41-.08,9.99-1.97,8.43-10.42-1.71-9.27-14.69-11.99-14.82-12.02l-.28-.06-.1-.27c-.02-.05-1.95-5.2-10.55-7.57-5.09-1.44-10.61-.7-15.14,2.04l-.37,.22-.28-.33s-3.76-4.42-8.53-4.42h-.02c-4.86,0-9.1,2.06-11.92,5.81-3.13,4.15-4.01,9.75-2.4,15.34,1.09,3.83,3.26,6.59,6.45,8.2,7.96,4.02,19.77-.32,19.89-.36l.23-.09,.21,.13c7.5,4.71,15.42-1.05,15.5-1.11l.5-.37,.25,.57c2.19,4.9,10.89,5.1,12.92,4.71Z" fill="#002346"></path>
  </g>
  <g>
    <path d="M690.2,275.45c8.21,1.56,10.1,9.57,10,12.16s0,3.99-34.94,12.05c-.07,.02-.13-.06-.09-.11,1.47-2.16,17.54-25.52,25.03-24.1Z" fill="#fbe493"></path>
    <path d="M665.04,300.23l-.28-.32c-.13-.2-.13-.45,0-.64,2.93-4.31,17.94-25.75,25.54-24.31h0c8.09,1.54,10.53,9.35,10.41,12.67-.11,2.95-.17,4.41-35.33,12.52l-.33,.08Zm24.46-24.34c-5.82,0-17,13.93-23.3,23.05,33.37-7.72,33.42-9.16,33.5-11.31,.08-1.97-1.4-10.13-9.59-11.68-.2-.04-.4-.06-.61-.06Z" fill="#002346"></path>
  </g>
  <g>
    <path d="M658.18,281.08c3.6,4.82,6.55,15.36,6.85,18.36,.01,.14-.13,.25-.27,.19-9.97-4.34-14.62-8.79-16.8-12-.84-1.23-1.28-2.66-1.32-4.1-.08-2.44,1.25-4.79,3.48-5.8,1.99-.9,4.89-.9,8.07,3.36Z" fill="#fbe493"></path>
    <path d="M664.84,300.14c-.09,0-.19-.02-.28-.06-10.27-4.48-14.92-9.09-17.01-12.18-.87-1.29-1.36-2.8-1.41-4.37-.08-2.69,1.43-5.21,3.77-6.27,2.06-.93,5.24-1.08,8.67,3.52,3.61,4.83,6.63,15.43,6.94,18.61,.02,.25-.08,.48-.28,.62-.12,.09-.26,.13-.41,.13Zm-12.58-22.4c-.65,0-1.29,.15-1.94,.44-1.98,.89-3.25,3.03-3.18,5.33,.04,1.38,.47,2.71,1.24,3.84,1.98,2.93,6.38,7.29,16.09,11.6-.54-3.61-3.36-13.12-6.68-17.57h0c-1.81-2.42-3.66-3.64-5.52-3.64Z" fill="#002346"></path>
  </g>
  <g>
    <path d="M683.63,239.94s7.27,.52,7.57,6.47c.42,8.68-7.65,8.68-7.65,8.68l.08-15.15Z" fill="#f2b3c1"></path>
    <path d="M683.55,255.58h-.49l.09-16.17,.52,.04c.08,0,7.71,.62,8.03,6.94,.14,2.81-.57,5.05-2.1,6.66-2.39,2.51-5.89,2.54-6.04,2.54Zm.57-15.09l-.07,14.07c.99-.1,3.24-.52,4.84-2.2,1.33-1.41,1.95-3.4,1.83-5.93-.23-4.55-4.98-5.68-6.59-5.94Z" fill="#002346"></path>
  </g>
  <g>
    <path d="M658.17,385.36c-1.01-1.34-2.7-.02-4.43,1.35l-2.09-5.66-13.85,1.24-5.72,8.72c4.86-1.89,8.89-1.87,11.96-1.18-1.35,.52-2.37,1.38-2.49,2.86-.29,3.73,3.94,5.45,10.49,3.08,6.55-2.37,7-2.68,7.52-4.77,0,0,.31-3.39-1.39-5.64Z" fill="#f2b3c1"></path>
    <path d="M646.6,397.35c-1.65,0-3.03-.38-4.02-1.13-1.11-.84-1.63-2.08-1.52-3.57,.08-1.07,.59-1.94,1.5-2.59-3.25-.46-6.71,.02-10.3,1.41l-1.43,.55,6.69-10.2,14.46-1.29,1.99,5.38c1.16-.91,2.34-1.71,3.38-1.58,.48,.06,.89,.31,1.21,.74h0c1.79,2.38,1.5,5.83,1.49,5.98-.61,2.49-1.45,2.88-7.84,5.19-2.06,.75-3.97,1.12-5.61,1.12Zm-6.47-8.44c1.37,0,2.71,.15,4.02,.44l1.58,.35-1.51,.58c-1.4,.54-2.09,1.32-2.18,2.44-.09,1.14,.3,2.08,1.13,2.71,1.69,1.28,4.94,1.23,8.7-.13,6.53-2.36,6.76-2.6,7.21-4.43h0s.25-3.17-1.3-5.22h0c-.21-.28-.42-.34-.55-.36-.78-.11-2.06,.91-3.18,1.79l-.53,.42-2.2-5.94-13.24,1.18-4.79,7.3c2.34-.76,4.62-1.15,6.83-1.15Z" fill="#002346"></path>
  </g>
  <g>
    <path d="M659.84,395.87l21.69,7.25v-15.9s-22-4.63-25.16-5.6c-3.16-.97-8-3.07-9.92-3.48s-4.71,1-5.78,1-5.62-1.84-8.06-.3-12,10.6-10.47,14.68c1.53,4.08,6,1.24,6,1.24,0,4.34,3.22,5.45,5.4,3.9,1.33-.94,1.18-1.11,1.63-4.43,.45-3.32,4.75-5.47,5.37-5.78,1.52-.74,3.28-.79,4.84-.15,2,.67,3.3,1.37,5.66,5.1,1,1.59,6.95,3,8.76,2.49" fill="#f2b3c1"></path>
    <path d="M682.02,403.8l-22.18-7.41c-2.03,.47-8.07-.91-9.21-2.73-2.36-3.73-3.59-4.29-5.4-4.9-1.46-.6-3.08-.55-4.47,.13-1.1,.55-4.71,2.57-5.1,5.4l-.14,1.1c-.3,2.31-.35,2.72-1.69,3.67-1.19,.85-2.69,.99-3.89,.37-1.27-.66-2.07-2.04-2.24-3.87-.88,.41-2.41,.94-3.8,.47-1.01-.34-1.75-1.12-2.21-2.34-1.72-4.58,8.43-13.86,10.67-15.27,1.99-1.25,5.13-.49,7.01-.04,.56,.14,1.1,.26,1.31,.26,.32,0,.93-.19,1.58-.38,1.32-.4,2.95-.9,4.3-.61,1.08,.23,3,.96,5.03,1.73,1.72,.65,3.5,1.32,4.93,1.76,3.1,.95,24.9,5.54,25.12,5.59l.39,.08v16.98Zm-22.03-8.4l21.04,7.03v-14.82c-3.06-.64-21.86-4.62-24.81-5.53-1.46-.45-3.26-1.13-4.99-1.78-2-.76-3.89-1.47-4.89-1.69-1.1-.23-2.6,.22-3.81,.59-.79,.24-1.41,.43-1.87,.43-.33,0-.84-.12-1.54-.29-1.73-.42-4.62-1.12-6.25-.08-2.43,1.54-11.66,10.39-10.27,14.09,.35,.94,.87,1.51,1.6,1.75,1.6,.54,3.66-.74,3.68-.75l.75-.48v.89c0,1.84,.64,3.22,1.75,3.79,.88,.45,1.98,.34,2.88-.29,.99-.7,1-.74,1.28-2.99l.14-1.1c.44-3.22,4.09-5.38,5.63-6.15,1.65-.81,3.56-.86,5.25-.17,1.99,.67,3.4,1.36,5.89,5.29,.84,1.34,6.54,2.75,8.21,2.28l.15,.53,.18-.54Z" fill="#002346"></path>
  </g>
  <path d="M628.14,395.26c-.06,0-.12-.01-.18-.03-.26-.1-.39-.39-.29-.64,3.11-8.22,8.58-12.37,8.81-12.54,.22-.16,.53-.12,.7,.1,.16,.22,.12,.53-.1,.7-.05,.04-5.47,4.16-8.47,12.09-.08,.2-.27,.32-.47,.32Z" fill="#002346"></path>
  <g>
    <path d="M716,294.67c10.25-3.44,15.72,8.34,18.67,16.22,2.95,7.88,16.56,80.3,14.46,88.59-.79,3.14-5.62,8.52-10.69,10.06-11,3.36-45.85-.12-60.71-2.83-4.23-.78-5.6-3.59-5.6-3.59l5.08-18.06c.83-2.38,3.13-3.92,5.65-3.8l32.74,1.74s-8-53.75-10-65.32,1.69-20.05,10.38-23" fill="#f69074"></path>
    <path d="M723.74,411.41c-15.05,0-35.58-2.29-46.1-4.2-4.43-.82-5.9-3.74-5.96-3.86l-.08-.17,5.13-18.24c.91-2.6,3.43-4.3,6.16-4.16l32.13,1.71c-.89-5.96-8.05-53.93-9.91-64.7-2.07-11.96,1.84-20.55,10.71-23.56l.32,.95c-8.36,2.84-12.02,11.02-10.05,22.44,1.98,11.44,9.92,64.79,10,65.33l.09,.61-33.35-1.77c-2.29-.1-4.4,1.31-5.15,3.47l-5.01,17.83c.35,.57,1.76,2.54,5.15,3.16,14.83,2.71,49.62,6.16,60.47,2.84,4.97-1.51,9.63-6.84,10.35-9.7,1.95-7.69-11.28-79.84-14.44-88.29-3.14-8.38-8.42-19.14-18.04-15.92l-.32-.95c10.44-3.51,16.01,7.75,19.3,16.52,2.91,7.77,16.64,80.36,14.48,88.89-.87,3.46-5.99,8.88-11.03,10.42-3.24,.99-8.57,1.39-14.85,1.39Z" fill="#002346"></path>
  </g>
  <g>
    <polygon points="677.69 383.98 667.35 381.52 664.01 399.79 675.94 402.62 677.69 383.98 677.69 383.98" fill="#fff"></polygon>
    <path d="M676.38,403.24l-12.95-3.07,3.52-19.25,11.28,2.68-1.84,19.64Zm-11.8-3.83l10.91,2.59,1.66-17.63-9.4-2.24-3.16,17.28Z" fill="#002346"></path>
  </g>
  <path d="M719.43,411.44c-18.83,0-39.89-1.84-41.92-2.68-2.28-.94-6.34-5.62-6.51-5.82l.76-.65s4.07,4.69,6.13,5.55c2.05,.85,33.89,3.59,54.62,2.23l.07,1c-4.04,.26-8.52,.37-13.14,.37Z" fill="#6200a8"></path>
  <g>
    <path d="M610.78,337.44h-84.64c-2,0-3.62,1.62-3.63,3.61,0,.36,.05,.71,.16,1.06l17.33,57.23c.93,3.06,3.75,5.15,6.94,5.15h88.64l-19-62.76c-.76-2.56-3.12-4.31-5.79-4.29" fill="#fff"></path>
    <path d="M636.25,404.99h-89.31c-3.44,0-6.42-2.21-7.42-5.5l-17.33-57.23c-.12-.39-.18-.79-.18-1.2,0-2.27,1.85-4.11,4.12-4.11h84.65v1h-84.64c-1.72,0-3.12,1.4-3.12,3.12,0,.31,.04,.61,.13,.91l17.33,57.23c.87,2.86,3.47,4.79,6.46,4.79h87.97l-18.8-62.12c-.69-2.32-2.85-3.93-5.27-3.93h-.04v-1h.04c2.86,0,5.42,1.91,6.23,4.65l19.19,63.4Z" fill="#002346"></path>
  </g>
  <g>
    <path d="M673.53,397.83h-80.59v6.66h80.59c1.33,0,2.41-1.08,2.41-2.41h0v-1.84c0-1.33-1.08-2.41-2.41-2.41" fill="#fbe493"></path>
    <path d="M673.53,404.99h-81.09v-7.66h81.09c1.6,0,2.91,1.31,2.91,2.91v1.83c0,1.61-1.31,2.92-2.91,2.92Zm-80.09-1h80.09c1.05,0,1.91-.86,1.91-1.91v-1.84c0-1.05-.86-1.91-1.91-1.91h-80.09v5.66Z" fill="#002346"></path>
  </g>
  <g>
    <path d="M606.57,337.44h-84.65c-2,0-3.63,1.63-3.62,3.64,0,.35,.05,.7,.15,1.03l17.32,57.23c.93,3.08,3.78,5.17,7,5.15h88.63l-19-62.76c-.76-2.56-3.11-4.3-5.78-4.29" fill="#fbe493"></path>
    <path d="M542.71,404.99c-3.39,0-6.44-2.26-7.42-5.5l-17.32-57.23c-.11-.38-.17-.78-.17-1.18,0-2.28,1.84-4.13,4.12-4.14h84.65v1h-84.65c-1.72,0-3.13,1.41-3.12,3.14,0,.3,.04,.6,.13,.89l17.32,57.23c.86,2.83,3.52,4.79,6.47,4.79h88.01l-18.8-62.12c-.69-2.33-2.9-3.96-5.3-3.93v-1h.03c2.86,0,5.42,1.91,6.23,4.65l19.19,63.4h-89.36Z" fill="#002346"></path>
  </g>
  <polygon points="552.13 356.41 526.08 356.41 522.27 343.05 548.31 343.05 552.13 356.41 552.13 356.41" fill="#002346"></polygon>
  <path d="M572.9,380.49c-.06,0-.12,0-.19,0-3.87-.14-7.15-2.88-7.99-6.66-.77-2.93,.98-5.94,3.91-6.72,.52-.14,1.06-.2,1.6-.18,3.88,.14,7.16,2.89,7.99,6.67,.77,2.91-.98,5.93-3.91,6.71-.46,.12-.94,.18-1.41,.18Zm-2.86-12.57c-.39,0-.77,.05-1.15,.15-2.4,.64-3.83,3.11-3.19,5.5,0,0,0,.01,0,.02,.73,3.34,3.63,5.76,7.05,5.89,.43,.01,.88-.04,1.3-.15,2.4-.64,3.83-3.11,3.19-5.5-.74-3.36-3.64-5.78-7.06-5.91-.05,0-.1,0-.15,0Z" fill="#002346"></path>
  <path d="M542.78,355.05l-1.58-1.22,3.09-4.01-3.08-4.01,1.59-1.22,4.02,5.23-4.03,5.23Zm-12.48,0l-4.02-5.23,4.02-5.23,1.59,1.22-3.08,4.01,3.08,4.01-1.59,1.22Zm4.52-.89l-1.64-1.14,5.22-7.53,1.64,1.14-5.22,7.53Z" fill="#fff"></path>
  <polygon points="610.18 389.05 620.29 389.05 623.31 398.54 619.86 400.65 614.66 398.34 610.18 389.05 610.18 389.05" fill="#002346"></polygon>
  <path d="M615,398l4.84,2.15,2.94-1.81-2.78-8.84h-9.1l4.1,8.5Zm4.91,3.17l-5.58-2.47-4.86-10.1h11.16l3.23,10.15-4,2.42h.05Z" fill="#fff"></path>
  <polygon points="604.27 372.44 614.38 372.44 617.4 381.93 613.95 384.04 608.75 381.74 604.27 372.44 604.27 372.44" fill="#f69074"></polygon>
  <path d="M609.08,381.39l4.84,2.14,2.94-1.8-2.81-8.83h-9.05l4.09,8.49h-.01Zm4.91,3.16l-5.58-2.47-4.86-10.08h11.16l3.23,10.14-4,2.42h.05Z" fill="#fff"></path>
  <g>
    <path d="M684.55,647.44h-76.86c-.71,0-1.29-.58-1.3-1.29,.02-1.79,.18-3.58,.48-5.35,1-6,4.09-14.16,13.39-16.35,15.15-3.56,22.08-9,22.08-9,0,0,2.49-11.2,6.07-11.36,3.58-.16,4.69,5.88,6.78,7.33,2.09,1.45,5.86,1.57,8.6,1.57,9.39,0,11.1-6.13,15.4-3.79,2.35,1.29,6.71,21,8.91,31.62,.12,.64,.26,1.23,.37,1.8,.46,2.16-.91,4.29-3.07,4.75-.31,.07-.62,.1-.93,.09" fill="#f69074"></path>
    <path d="M684.56,647.96s-.07,0-.1,0v-.02s-76.77,0-76.77,0c-.98,0-1.79-.8-1.8-1.79,.02-1.83,.18-3.65,.49-5.44,1.07-6.41,4.33-14.53,13.77-16.75,13.7-3.22,20.7-8.04,21.75-8.8,.42-1.81,2.79-11.4,6.49-11.57,2.57-.12,3.92,2.4,5.13,4.61,.65,1.2,1.27,2.33,1.96,2.81,1.88,1.3,5.26,1.48,8.31,1.48,4.7,0,7.39-1.56,9.55-2.82,2.1-1.22,3.76-2.18,6.09-.91,1.9,1.04,4.98,11.8,9.16,31.96,.07,.35,.14,.68,.2,1,.06,.28,.12,.54,.17,.81,.25,1.17,.03,2.37-.62,3.38s-1.66,1.71-2.83,1.96c-.31,.07-.63,.1-.95,.1Zm0-1c.25,.05,.5-.03,.74-.08,.92-.2,1.7-.74,2.21-1.52s.68-1.72,.48-2.63c-.05-.27-.11-.53-.17-.8-.07-.33-.14-.66-.21-1.01-5.75-27.76-8.08-30.96-8.66-31.27-1.84-1-3.07-.29-5.11,.9-2.14,1.25-5.08,2.95-10.05,2.95-3.21,0-6.78-.2-8.88-1.66-.88-.61-1.55-1.84-2.26-3.15-1.12-2.05-2.28-4.14-4.21-4.09-2.33,.1-4.67,6.78-5.6,10.97l-.04,.17-.14,.11c-.29,.22-7.19,5.55-22.27,9.09-8.91,2.1-11.99,9.83-13.01,15.95-.29,1.74-.45,3.51-.47,5.27,0,.43,.36,.78,.8,.78h76.86v.02Z" fill="#002346"></path>
  </g>
  <g>
    <path d="M684.86,647.9h-76.86c-.71,0-1.29-.58-1.3-1.29,.02-1.79,.18-3.58,.48-5.35h81.23c.12,.64,.26,1.23,.37,1.8,.46,2.16-.91,4.29-3.07,4.75-.31,.07-.62,.1-.93,.09" fill="#fff"></path>
    <path d="M684.87,648.4s-.06,0-.09,0h-76.77c-.98,0-1.79-.8-1.8-1.79,.02-1.82,.18-3.65,.49-5.44l.07-.42h82.07l.08,.41c.06,.34,.13,.67,.2,.99,.06,.28,.12,.55,.17,.81,.52,2.42-1.03,4.81-3.46,5.34-.31,.07-.63,.1-.95,.1Zm0-1c.28,.02,.5-.03,.75-.08,1.89-.41,3.09-2.27,2.69-4.16-.05-.27-.11-.53-.17-.8-.04-.2-.08-.4-.13-.6h-80.39c-.25,1.6-.39,3.24-.4,4.86,0,.43,.36,.78,.8,.78h76.86Z" fill="#002346"></path>
  </g>
  <path d="M642,628.1c-.2,0-.39-.12-.47-.33-2.4-6.45-7.92-7.01-8.15-7.03-.27-.02-.48-.27-.45-.54,.02-.28,.27-.47,.54-.46,.26,.02,6.38,.61,9.01,7.67,.1,.26-.04,.55-.29,.64-.06,.02-.12,.03-.17,.03Zm6-2.57c-.19,0-.38-.11-.46-.3-2.91-6.6-7.24-7.99-7.28-8.01-.26-.08-.41-.36-.33-.62s.35-.42,.62-.33c.19,.06,4.8,1.51,7.91,8.56,.11,.25,0,.55-.26,.66-.07,.03-.13,.04-.2,.04Z" fill="#002346"></path>
  <path d="M681.78,337.94c-.26,0-.48-.2-.5-.46-1.01-14.24-4.26-28.16-9.64-41.38-.1-.26,.02-.55,.27-.65,.25-.1,.55,.02,.65,.27,5.43,13.32,8.7,27.34,9.72,41.68,.02,.28-.19,.51-.46,.53-.01,0-.02,0-.04,0Zm-29.19,0s-.03,0-.04,0c-.27-.02-.48-.26-.46-.54,2.8-34.24,6.5-43.17,6.66-43.54,.11-.25,.4-.37,.66-.26,.25,.11,.37,.4,.26,.66-.04,.09-3.8,9.23-6.58,43.22-.02,.26-.24,.46-.5,.46Z" fill="#002346"></path>
  <g>
    <path d="M684.11,337.44c0,1.29-1.04,2.33-2.33,2.33s-2.33-1.04-2.33-2.33c0-1.29,1.04-2.33,2.33-2.33s2.33,1.04,2.33,2.33h0" fill="#fff"></path>
    <path d="M681.78,340.27c-1.56,0-2.83-1.27-2.83-2.83s1.27-2.83,2.83-2.83,2.83,1.27,2.83,2.83-1.27,2.83-2.83,2.83Zm0-4.66c-1.01,0-1.83,.82-1.83,1.83s.82,1.83,1.83,1.83,1.83-.82,1.83-1.83-.82-1.83-1.83-1.83Z" fill="#002346"></path>
  </g>
  <g>
    <path d="M654.92,337.44c0,1.29-1.04,2.33-2.33,2.33s-2.33-1.04-2.33-2.33c0-1.29,1.04-2.33,2.33-2.33,1.28,0,2.32,1.05,2.33,2.33" fill="#fff"></path>
    <path d="M652.59,340.27c-1.56,0-2.83-1.27-2.83-2.83s1.27-2.83,2.83-2.83c1.56,0,2.82,1.28,2.83,2.83h0c0,1.56-1.27,2.83-2.83,2.83Zm0-4.66c-1.01,0-1.83,.82-1.83,1.83s.82,1.83,1.83,1.83,1.83-.82,1.83-1.83c0-1.01-.83-1.83-1.83-1.83Z" fill="#002346"></path>
  </g>
  <g>
    <polygon points="643.74 597.91 641.99 588.95 677.41 581.56 678.35 590.37 643.74 597.91 643.74 597.91" fill="#f69074"></polygon>
    <path d="M643.35,598.51l-1.94-9.95,36.44-7.6,1.05,9.8-35.55,7.75Zm-.77-9.17l1.56,7.97,33.67-7.33-.83-7.81-34.4,7.18Z" fill="#002346"></path>
  </g>
  <g>
    <polygon points="550.13 590.65 550.42 579.99 587.36 587.93 585.53 597.91 550.13 590.65 550.13 590.65" fill="#f69074"></polygon>
    <path d="M585.93,598.5l-36.31-7.45,.32-11.68,38,8.17-2.01,10.96Zm-35.29-8.26l34.49,7.07,1.65-9-35.88-7.71-.26,9.64Z" fill="#002346"></path>
  </g>
  <g>
    <polygon points="334.89 651.25 350.54 651.25 403.51 441.33 387.86 441.33 334.89 651.25 334.89 651.25" fill="#fff"></polygon>
    <path d="M350.93,651.75h-16.68l.16-.62,53.06-210.3h16.68l-.16,.62-53.06,210.3Zm-15.4-1h14.62l52.72-208.92h-14.62l-52.72,208.92Z" fill="#002346"></path>
  </g>
  <g>
    <polygon points="809.51 651.25 793.86 651.25 740.89 441.33 756.54 441.33 809.51 651.25 809.51 651.25" fill="#fff"></polygon>
    <path d="M810.15,651.75h-16.68l-.1-.38-53.13-210.54h16.68l.1,.38,53.13,210.54Zm-15.9-1h14.62l-52.72-208.92h-14.62l52.72,208.92Z" fill="#002346"></path>
  </g>
  <g>
    <path d="M368.86,425.7h414.08v10.92c0,2.6-2.11,4.71-4.71,4.71H371.94c-1.7,0-3.08-3-3.08-6.66v-8.97Z" fill="#e6e7e8"></path>
    <path d="M778.23,441.83H371.94c-2.01,0-3.58-3.14-3.58-7.16v-9h.5v-.47h414.58v11.42c0,2.88-2.34,5.21-5.21,5.21Zm-408.87-15.63v8.47c0,3.63,1.36,6.16,2.58,6.16h406.29c2.32,0,4.21-1.89,4.21-4.21v-10.42H369.36Z" fill="#002346"></path>
  </g>
  <path d="M542.38,626.47c-.21,0-.4-.13-.47-.34-1.58-4.71-5.88-6.96-5.92-6.98-.25-.13-.34-.43-.22-.67s.43-.34,.67-.22c.19,.1,4.7,2.44,6.42,7.55,.09,.26-.05,.54-.31,.63-.05,.02-.11,.03-.16,.03Z" fill="#002346"></path>
  <path d="M549.39,623.92c-.21,0-.41-.14-.48-.35-2.03-6.6-6.41-7.27-6.6-7.3-.27-.04-.46-.29-.43-.56,.04-.27,.29-.46,.56-.43,.21,.03,5.19,.75,7.42,7.99,.08,.26-.07,.54-.33,.62-.05,.02-.1,.02-.15,.02Z" fill="#002346"></path>
  <g>
    <path d="M359.23,402.57h433.34c.67,0,1.21,1.17,1.21,2.63v17.88c0,1.45-.54,2.62-1.21,2.62H359.23c-.67,0-1.22-1.17-1.22-2.62v-17.88c0-1.46,.55-2.63,1.22-2.63" fill="#fff"></path>
    <path d="M792.57,426.2H359.23c-.98,0-1.72-1.34-1.72-3.12v-17.88c0-1.81,.72-3.13,1.72-3.13h433.34c.99,0,1.71,1.32,1.71,3.13v17.88c0,1.81-.72,3.12-1.71,3.12Zm-433.34-23.13c-.21,0-.72,.75-.72,2.13v17.88c0,1.38,.51,2.12,.72,2.12h433.34c.21,0,.71-.74,.71-2.12v-17.88c0-1.38-.5-2.13-.71-2.13H359.23Z" fill="#002346"></path>
  </g>
  <g>
    <ellipse cx="662.38" cy="228.3" rx="25.5" ry="11.5" fill="#002346"></ellipse>
    <path d="M662.38,240.3c-14.58,0-26-5.27-26-12s11.42-12,26-12,26,5.27,26,12-11.42,12-26,12Zm0-23c-13.79,0-25,4.93-25,11s11.21,11,25,11,25-4.93,25-11-11.21-11-25-11Z" fill="#002346"></path>
  </g>
</svg>
